<?xml version="1.0" encoding="utf-8"?>
<!-- Generator: Adobe Illustrator 26.0.2, SVG Export Plug-In . SVG Version: 6.00 Build 0)  -->
<svg version="1.1" id="레이어_1" xmlns="http://www.w3.org/2000/svg" xmlns:xlink="http://www.w3.org/1999/xlink" x="0px"
	 y="0px" viewBox="0 0 2141.1 2609.2" style="enable-background:new 0 0 2141.1 2609.2;" xml:space="preserve">
<style type="text/css">
	.st0{clip-path:url(#SVGID_00000160154044081520138070000007063538528505540778_);}
	.st1{fill:#FFFFFF;}
	.st2{fill:#FF6EFF;}
</style>
<g id="레이어_2_00000164512997230865637190000007721198294525613738_">
	<g id="레이어_1-2">
		<g>
			<defs>
				<rect id="SVGID_1_" y="-31.5" width="2141.1" height="2594.2"/>
			</defs>
			<clipPath id="SVGID_00000163033930646333141070000014626745238196165563_">
				<use xlink:href="#SVGID_1_"  style="overflow:visible;"/>
			</clipPath>
			<g style="clip-path:url(#SVGID_00000163033930646333141070000014626745238196165563_);">
				<path class="st1" d="M-63.5,518.9c26.9,102.3,125.1,169.2,222.8,209.9c181,75.3,400.9,88.7,564.5-19.4
					c73.1-48.4,129.9-117.2,185.5-185.1c-60.1,142.5-80.3,309.5-16.8,450.6s225.6,242.3,375.2,203.2c48.6-12.7,97.7-44.6,108-93.8
					c-85.4,77.1,19.5,172.4-16.4,281.7c-18,55-198.5,118.5-186.9,175.1c18.3,88.8,88.1,157.5,160.2,212.4
					c57.7,43.9,127.1,84.5,198.4,71.9c-273.4-55-565.3-13.5-812.5,115.7c-53.2,27.8-109.5,66.7-119.1,126
					c-100.9-81.5-241.4-91.4-370.9-82.9c-84.4,5.5-170.4,17.8-245.5,56.9c-75.1,39-138.2,109-150.2,192.9"/>
				<path class="st2" d="M-65.1,519.3c18.3,68.1,68,120.9,125.4,159.3c62,41.3,133.6,69.1,205.6,87.7
					c146.1,37.6,310.2,34,442.5-45.3c81.4-48.8,142.6-122.9,202-195.5l-2.8-1.6c-60,143-82.2,314.4-13.5,458.6
					c55.4,116.4,179.3,207.7,311,205.7c66.9-1,155.5-29.4,172.1-103.5c0.2-0.9-0.3-1.8-1.2-2c-0.6-0.1-1.1,0-1.6,0.4
					c-24.8,22.8-36.7,51.9-34.7,85.5s13.6,65.8,20.1,98.6c3.8,19,6.2,38.2,5.2,57.6c-0.8,16.1-2.9,35.3-11.5,49.3
					c-13.1,21.3-37.1,36.3-57.3,49.8c-25,16.8-51,32.3-75.4,50c-17.7,12.8-39.2,28-47.9,49.1c-3.7,9.1-2.7,17.2-0.4,26.5
					c4.9,19.9,12.3,39.1,21.9,57.2c19.3,36.7,46.6,68.7,76.5,97.2c35.5,33.7,75.2,65,117.7,89.5c43.3,25,92.4,42,142.9,33.6
					c1.6-0.3,1.6-2.9,0-3.2c-135.4-26.9-274.3-30.9-411.1-12c-136.3,18.7-269.5,59.9-392.1,122.4c-54.9,28-119,66.3-130.4,132.4
					l2.8-0.7c-92-73.6-214-88.7-328.2-85.5c-120.8,3.3-254.7,18.6-350.4,99.6c-46.4,39.2-81.6,92.6-90.7,153.4
					c-0.3,2.1,2.9,3,3.2,0.9c8.1-54.2,37.1-102.4,76.4-139.8c43.3-41.2,97.7-67.8,154.8-83.8c60.4-17,123.6-23.2,186.1-26.1
					c57.1-2.7,114.8-1.3,171.1,8.7c63.4,11.3,124.7,34.6,175.3,75c0.9,0.7,2.6,0.6,2.8-0.7c10.3-59.7,65.2-96.8,115-123.2
					c60-31.7,122.7-58.2,187.2-79.1c128.9-42.1,263.8-63,399.3-61.8c76.6,0.7,152.9,8.6,228,23.6v-3.2c-47.4,7.9-94-7.4-135.1-30.3
					c-38.1-21.2-73.4-48.4-106-77.2c-31.6-27.9-60.9-59.1-83-95.1c-10.6-17.2-19.2-35.5-25.6-54.6c-4.1-12.4-10.1-27.2-5.7-40.2
					c7.3-21.5,30.5-37.4,48-50c23.7-17.1,48.8-32.1,73.1-48.4c19.6-13.1,40.9-27,55.6-45.7c17.4-22.2,18.2-56.4,16-83.3
					c-3.2-37.6-16.2-73.3-22.5-110.4c-2.9-17.4-4.1-35.4,0-52.7c4.7-20,16.4-36.6,31.3-50.3l-2.8-1.6
					c-15.3,68.3-94.6,96.8-156.8,100.6c-63.9,3.8-127.4-15.8-181.3-49.3c-55.2-34.4-101.7-83.5-132.2-141
					c-35.2-66.3-49.4-142.7-48.4-217.3c1.1-86.6,22.2-172.3,55.6-251.9c0.6-1.5-1.8-2.9-2.8-1.6c-52.1,63.7-105.3,128.3-172.8,176.3
					c-61.4,43.6-133.2,70-207.6,80.8c-75.8,11-153.6,6.2-228.4-9.6c-72.4-15.4-144.3-40.4-208.6-77.3
					C22.2,654.1-40.8,597.1-61.9,518.4c-0.3-0.9-1.3-1.3-2.2-1C-64.8,517.7-65.3,518.5-65.1,519.3z"/>
				<path class="st1" d="M2193.4,300.4c-58.2-21-114.5-47-168.2-77.9C1958.7,184.2,1892,127,1884,55.4
					c-39,106.8-144.6,194.6-265.4,214.9c-120.9,20.4-252.1-23.8-330-110.9c14.2,118.6-36.2,242.3-131.8,323.3
					c-95.6,81-234.1,26.8-362,4.5c60,84.9,105.6,183.9,95.1,284.6c-10.4,100.7-40.2,184.1-149.7,196.8
					c95.2,38.3,138.8,189.7,109.1,280.9c439.2,116.4,428,297.6,503,385.8c224.6-88.8,606.4-284.3,840.3-218.3"/>
				<path class="st2" d="M2193.9,298.8c-55.3-20-108.9-44.5-160.2-73.4c-43.7-24.7-86.6-54.6-116.7-95.4
					c-16.3-22.1-28-47.3-31.4-74.7c0-0.9-0.8-1.7-1.7-1.6c-0.7,0-1.4,0.5-1.6,1.2c-31.5,85.2-101.7,153.4-184.2,189.7
					c-87.9,38.7-189.7,37.3-278.6,2.2c-49.3-19.4-94.4-49.3-129.9-88.7c-0.9-1-3-0.3-2.9,1.2c11.1,95-18.9,191.6-77.7,266.5
					c-29.1,37-64.9,72.4-110.4,87.5c-44.6,14.8-93.1,12-138.9,5.1c-55.4-8.4-109.5-23.2-164.6-32.9c-1.3-0.2-2.8,1.1-1.9,2.5
					c50.9,72.2,93.6,156.1,96.3,246.1c1,35.9-4.2,73.1-13.4,107.7c-7.7,28.8-19.7,57.3-39.9,79.6c-25,27.5-59.7,41.1-96,45.6
					c-0.9-0.1-1.8,0.5-1.9,1.4c-0.1,0.9,0.5,1.8,1.4,1.9c39,16,67.5,49.7,86.2,86.6c19.8,39.2,30.4,82.5,30.9,126.4
					c0.2,22.3-2.3,44.6-9.1,65.9c-0.2,0.9,0.3,1.8,1.1,2.1c120.2,32,245.3,75.6,341.4,157.6c28.4,24.2,53.6,52,74.8,82.7
					c16.5,24.1,30.3,49.9,43.8,75.8c12.4,24,24.8,48.5,42.4,69.2c0.4,0.4,1,0.6,1.6,0.4c105.7-41.8,209-89.3,315.1-130.2
					c113.1-43.7,230.6-84.1,351.7-97.5c57.4-6.4,116.6-6.2,172.6,9.4c0.9,0.2,1.8-0.3,2-1.2c0.2-0.9-0.3-1.7-1.1-2
					c-51.9-14.5-106.6-15.7-160-10.9c-61.5,5.6-122.2,19.2-181.5,36c-124.9,35.5-244.9,86-364.2,136.7
					c-27.2,11.6-54.4,23.2-81.7,34.6c-12.3,5.1-24.6,10.2-37,15.2l-8.5,3.3c-1.1,0.5-6.3,3.3-7.2,3.2c-1.5-0.4-4.6-5.7-5.5-6.9
					c-14.2-18.7-24.8-39.9-35.6-60.6c-12.9-24.9-26.1-49.7-41.8-73c-19.3-28.7-42-54.9-67.7-78c-82.5-74.4-189.3-118.2-294.2-150.3
					c-19.3-5.9-38.8-11.4-58.4-16.6l1.1,2.1c12.9-40.5,11.4-85.1,2.2-126.2c-9.4-42.5-27.8-84.6-57.2-117.1
					c-15.4-17.1-34-31-55.4-39.7l-0.4,3.3c31.8-3.9,62.7-14.3,87.2-35.6c22.3-19.5,37-45.9,46.4-73.7
					c11.1-32.7,16.9-68.3,18.8-102.8c2.5-45.6-6.3-91.2-21.8-133.9c-17.9-49.5-44.4-95.3-74.6-138.1l-1.9,2.5
					c51.4,9.1,101.9,22.5,153.4,31.1c45.6,7.6,93.5,12.1,138.9,0.5c46.8-11.9,83-42.9,113.9-78.8c31.2-36.2,55.4-77.9,71.3-123
					c18.1-51,24.4-105.4,18.3-159.2l-2.9,1.2c64.4,71.5,160,111.8,255.5,115.9c95.5,4.2,188.9-30.9,258.7-96.1
					c36.9-34.6,66.5-77,84.1-124.6l-3.3-0.4c5.9,48.9,37.2,89.3,73.5,120.6c42.2,36.5,92.5,63.1,142.7,86.8
					c30.8,14.6,62.3,27.7,94.5,39.3c2,0.7,2.9-2.5,0.9-3.2L2193.9,298.8z"/>
				<path class="st1" d="M2216.5,1398c-85.1-23.7-167-58-243.6-102c-66.5-38.3-133.2-91.8-141.3-163.4
					c-39,106.8-144.6,190.8-265.4,211.2c-120.9,20.3-252.1-23.8-330-110.9c14.2,118.6-36.2,242.3-131.8,323.3s-234.1,117.4-362,95
					c60,84.9,105.6,183.9,95.2,284.6c-10.4,100.7-90.5,200.1-200,212.8c78,62.8,111.3,168.6,81.6,259.7
					c121-14.4,244.4-23.9,364.5-4.5c120.2,19.4,238.1,70.6,313.1,158.8c224.6-88.8,483.9-101.8,717.8-35.8l-4.5-109.6
					c-1.6-40.1-3.2-80.9,8.2-119.6c11.4-38.7,38.1-75.7,78.4-91.4"/>
				<path class="st2" d="M2217,1396.4c-65.6-18.3-129.4-42.9-190.3-73.4c-54.1-27.1-110-58-150.8-103.6
					c-21.9-24.5-38.5-53.8-42.5-86.8c0.1-0.9-0.5-1.8-1.4-1.9c-0.9-0.1-1.8,0.5-1.9,1.4c-31.4,85.1-102.4,151.8-185.1,186.8
					c-88.1,37.4-189,36.4-277.7,1.4c-49.3-19.4-94.4-49.3-129.9-88.7c-0.7-0.6-1.7-0.6-2.4,0c-0.3,0.3-0.5,0.7-0.5,1.1
					c11,95-18.9,191.6-77.7,266.4c-60.6,77.2-149.8,127.2-245.3,147c-55.5,11.6-112.8,12.7-168.7,3.2c-1.3-0.2-2.8,1.1-1.9,2.5
					c50.9,72.2,93.6,156.1,96.3,246.1c2.2,75.1-28.7,148.3-85.8,197.6c-32.1,27.7-71.6,46-113.8,51.2c-1.2,0.2-2.5,1.8-1.2,2.9
					c75.1,61,111,164.8,81.1,258.1c-0.2,0.9,0.3,1.8,1.2,2.1c0.1,0,0.3,0.1,0.4,0.1c102.2-12.1,205.5-20.9,308.3-11.5
					c89.7,8.1,179.2,30.9,257.9,75.7c41.4,23.6,79.2,53.4,110.3,89.7c0.4,0.4,1,0.6,1.6,0.4c88.4-34.7,180.9-57.9,275.2-69.1
					c94.1-11.3,189.2-10.9,283.2,1.1c53.6,6.9,106.6,17.7,158.6,32.3c0.9,0.2,1.8-0.3,2.1-1.2c0-0.1,0.1-0.3,0.1-0.4l-4-97.1
					c-1.3-31.1-3.2-62.3,0.2-93.3c5.8-53.7,32.1-107.5,84.7-128.6c2-0.8,1.1-4-0.9-3.2c-36,14.4-62,45-75.6,80.8
					c-17.8,46.8-13.6,98.5-11.6,147.5l3.9,93.9l2.1-1.6c-91.6-25.6-186.1-39.5-281.3-41.4c-95.7-2-191.3,8-284.5,29.7
					c-46.2,10.7-91.6,24.5-136,41.1c-3.9,1.4-12.9,6.9-16.8,5.1c-1.7-0.8-3.6-4.1-4.8-5.5c-1.9-2.1-3.8-4.2-5.8-6.3
					c-7.3-7.7-14.9-15.1-22.8-22.2c-15.2-13.6-31.3-26-48.2-37.2c-72.7-48.4-158.2-75.8-244.2-88.2c-103.3-14.8-208.2-9.1-311.6,2
					c-13.3,1.4-26.5,2.9-39.7,4.5l1.6,2.1c23.1-72.4,7.5-152.9-36.9-214c-12.9-17.7-28.1-33.6-45.1-47.4l-1.2,2.9
					c74.3-9.1,137.6-57.9,172.8-122.9c40.4-74.4,36.3-161,8-238.9c-17.9-49.4-44.4-95.2-74.6-138.1l-1.9,2.5
					c98.4,16.9,202.2,0.5,290.5-46.2c86.5-45.7,154.5-122,187.1-214.6c18.1-51,24.4-105.4,18.3-159.2l-2.9,1.2
					c64.4,71.5,160,111.8,255.5,115.9c95.2,4,188.2-29.7,258.7-93.9c37.1-33.9,66.6-75.8,84.1-123.1l-3.3-0.4
					c6.9,57.3,48.9,101,93.6,133.6c53.9,39.4,115.9,69.2,177.7,94.2c37.5,15.2,75.8,28.3,114.8,39.2c0.9,0.2,1.8-0.4,2-1.4
					C2218.2,1397.5,2217.7,1396.7,2217,1396.4L2217,1396.4z"/>
			</g>
		</g>
	</g>
</g>
</svg>
